<svg width="594" height="434" viewBox="0 0 594 434" fill="none" xmlns="http://www.w3.org/2000/svg">
<path fill-rule="evenodd" clip-rule="evenodd" d="M449.9 396.823L450.222 396.899L450.86 397.054C461.201 399.638 471.277 403.279 480.881 407.903C486.256 410.491 491.852 413.467 497.801 413.011C499.505 412.88 501.185 412.465 502.894 412.446C508.686 412.383 513.573 416.758 519.234 417.982C524.144 419.043 529.209 417.664 534.224 417.379C539.239 417.094 545.037 418.417 547.358 422.872C547.681 423.491 547.928 424.2 547.775 424.882C547.57 425.8 546.739 426.377 545.87 426.812L545.696 426.897L545.326 427.068C538.65 430.058 531.524 433.118 524.291 432.24L523.786 432.172L523.033 432.074C516.254 431.307 509.414 433.512 502.57 433.32C488.443 432.924 474.041 431.392 460.464 428.527L459.013 428.215L458.282 428.057C435.004 423.085 423.297 426.688 412.418 426.965L412.072 426.972L411.393 426.981C407.203 427.002 393.29 426.916 388.317 428.221C385.808 428.879 384.142 425.078 385.466 422.847C386.736 420.706 389.286 419.801 391.615 418.871L391.905 418.755L392.138 418.659C394.397 417.71 396.749 416.196 397.186 413.847L397.224 413.601L397.26 413.368C397.803 410.385 401.363 409.06 404.417 408.381L404.664 408.327L406.417 407.956C411.104 406.982 415.884 406.174 420.594 406.906C423.262 407.32 433.449 400.938 436.504 398.31C440.048 395.262 445.271 395.756 449.9 396.823ZM488.852 199.713L488.472 199.837C485.282 200.755 482.233 202.155 479.479 204.012C474.774 207.184 470.81 211.653 465.451 213.518C461.747 214.808 457.573 214.698 453.942 213.214C455.199 215.946 458.691 216.899 461.683 216.588C470.42 215.681 476.374 207.456 484.228 203.522C485.96 202.654 487.783 202.003 489.659 201.548C490.44 203.321 491.219 205.112 491.994 206.916L491.99 206.937C491.392 207.377 490.848 207.889 490.38 208.473C488.58 210.718 488.133 214.123 489.735 216.513C491.345 218.913 494.292 219.645 497.293 219.555L497.294 219.545L498.379 222.205C500.183 226.654 501.974 231.18 503.75 235.785L503.606 235.862C503.175 236.079 502.746 236.299 502.319 236.523C490.652 242.622 480.079 251.138 467.448 254.851C465.104 255.54 462.636 256.058 460.226 255.652C457.817 255.246 455.466 253.744 454.649 251.441C453.745 251.504 453.657 252.839 454.042 253.66C456.192 258.248 462.731 258.224 467.595 256.807C480.598 253.019 491.653 244.602 503.632 238.252L504.509 237.79L505.891 241.471C566.04 405.936 403.783 393.763 357.153 381.687C288.018 363.783 82.6685 430.632 37.6591 381.687C18.9361 361.327 9.59509 334.528 7.96436 304.551C21.6429 298.887 33.5438 288.975 47.489 283.73C56.246 280.437 65.7173 279.058 75.0498 279.718C79.7308 280.049 84.5178 280.941 88.4512 283.501C92.3845 286.06 95.3056 290.582 94.8691 295.255C94.565 298.509 92.7368 301.407 90.8112 304.048C89.4748 305.882 88.0536 307.675 86.3276 309.147C83.0364 311.955 78.7608 313.455 74.4542 313.861C70.0245 314.279 65.3193 313.507 61.7718 310.822C58.2243 308.136 56.147 303.284 57.5267 299.055C58.0868 297.337 59.1572 295.821 60.4175 294.527C62.9908 291.884 66.6518 290.05 70.309 290.528C73.9661 291.007 77.3033 294.309 77.0143 297.986C76.7253 301.663 71.9771 304.421 68.9689 302.287C69.438 300.672 67.0602 299.156 65.7935 300.262C64.6888 301.227 65.0594 303.172 66.183 304.115C67.3066 305.057 68.8752 305.236 70.342 305.247C72.7318 305.264 75.2439 304.894 77.147 303.449C81.4827 300.156 80.0727 292.488 75.3818 289.724C70.691 286.96 64.4444 288.35 60.1098 291.644C57.9315 293.3 56.0539 295.454 55.1469 298.036C53.259 303.409 56.1378 309.665 60.8597 312.848C65.5816 316.032 71.6792 316.565 77.3012 315.657C80.492 315.142 83.667 314.171 86.3194 312.323C88.9409 310.497 90.9265 307.911 92.7588 305.294C95.1771 301.84 97.485 298.008 97.5276 293.792C97.5742 289.068 94.6435 284.662 90.7454 281.993C86.8473 279.325 82.0983 278.179 77.4022 277.667C63.2706 276.126 48.9167 279.937 36.3191 286.523C26.6807 291.562 17.7896 298.249 7.86767 302.516C6.85908 278.893 10.5719 253.361 18.1978 227.491L18.8078 227.367C28.2282 225.404 37.8324 224.326 47.4533 224.149C53.8368 224.032 60.3045 224.324 66.4276 226.132C68.9981 226.892 71.5227 227.92 74.193 228.151C79.3155 228.595 84.5305 226.068 89.5038 227.373C92.0127 228.031 93.6791 224.229 92.3553 221.999C91.0315 219.768 88.3204 218.88 85.9158 217.907C83.5113 216.934 80.92 215.326 80.5968 212.752C80.1912 209.522 76.3406 208.158 73.1571 207.479L71.9894 207.231C67.115 206.203 62.1335 205.295 57.2268 206.058C54.5587 206.472 51.7563 207.363 49.2452 206.371C45.4974 204.89 44.3718 200.09 41.317 197.462C38.1676 194.753 33.6924 194.841 29.486 195.644C45.5427 156.778 69.6835 118.603 99.1721 86.4463L99.1883 86.4651C99.3579 86.4865 99.5272 86.5065 99.6959 86.5257C110.826 87.789 122.232 86.5677 132.842 82.9764C140.428 80.4088 148.654 83.9581 155.546 88.0378C162.437 92.1175 169.441 96.9661 177.446 97.2016C183.179 97.3702 188.661 95.1216 194.197 93.6243C217.75 87.2544 242.51 94.4214 266.583 98.3928C273.995 99.6156 282.338 100.318 288.311 95.7603C286.506 91.8125 282.185 89.5315 277.899 88.8418C273.614 88.1521 269.243 88.7663 264.911 89.0467C249.797 90.0247 234.434 86.82 220.971 79.8812C213.582 76.0725 204.822 76.6437 196.555 75.7701C188.288 74.8964 179.098 71.5186 176.213 63.7217C173.668 56.8421 166.475 52.3763 159.174 51.6701C151.873 50.964 144.571 53.518 138.295 57.3139C132.018 61.1099 126.577 66.1117 120.988 70.8627C118.934 72.6089 116.788 74.3628 114.225 75.1995C112.779 75.6717 111.267 75.8301 109.742 75.9105L109.228 75.9254C213.266 -28.4587 375.424 -56.6489 488.852 199.713ZM492.795 208.785C492.982 209.222 493.171 209.667 493.36 210.112L496.476 217.566C494.719 217.47 493.046 216.933 491.984 215.586C490.461 213.653 490.95 210.621 492.693 208.883L492.795 208.785ZM80.3751 140.532L79.7956 140.84C78.9074 141.318 78.052 141.814 76.8098 142.564L73.8712 144.351C70.016 146.672 67.9171 147.713 65.2624 148.493C64.0903 148.838 63.2393 148.954 62.461 148.822C61.5977 148.677 60.8735 148.155 60.6417 147.502L60.4385 146.928L59.8318 146.971C58.7345 147.048 58.5022 148.236 58.8976 149.079C59.9405 151.305 62.8055 151.75 65.7759 150.885C68.7913 150.007 71.1381 148.864 75.4157 146.345L78.1562 144.715C81.7003 142.619 83.5617 141.653 85.9148 140.768C89.6386 139.368 93.6675 138.781 97.636 139.062C99.9578 139.226 101.721 139.679 103.12 140.59C104.721 141.632 105.719 143.37 105.568 144.988C105.47 146.034 104.968 147.031 103.942 148.439C103.248 149.392 102.712 150.017 102.108 150.532C100.868 151.589 99.1942 152.234 97.3567 152.407C95.4225 152.589 93.6367 152.198 92.3655 151.235C91.0003 150.202 90.3177 148.408 90.7857 146.973C90.9728 146.399 91.3402 145.839 91.8632 145.302C92.9206 144.216 94.2891 143.627 95.5142 143.787C96.7781 143.953 97.8411 145.092 97.7544 146.195L97.7383 146.319C97.5894 147.14 96.6373 147.763 95.9018 147.648L95.8234 147.632L95.8214 147.614C95.5626 146.518 94.0679 145.819 93.116 146.651C92.2473 147.41 92.4329 148.825 93.2985 149.552C93.9031 150.059 94.6371 150.227 95.6267 150.234C97.0282 150.244 98.1843 149.975 99.0939 149.284C101.422 147.516 100.822 143.472 98.2438 141.953C96.0088 140.636 92.9615 141.105 90.6713 142.845C89.5163 143.723 88.6564 144.798 88.2291 146.014C87.3076 148.636 88.5861 151.771 91.0363 153.423C93.1357 154.839 95.8983 155.249 98.8051 154.779C100.482 154.508 101.905 154.006 103.081 153.187C104.166 152.431 105.001 151.479 106.096 149.914C107.586 147.785 108.309 146.219 108.328 144.43C108.35 142.18 107.032 139.982 105.012 138.599C103.347 137.46 101.311 136.844 98.8084 136.571C92.8001 135.916 86.4146 137.375 80.3751 140.532Z" fill="#6CEAE2"/>
<path fill-rule="evenodd" clip-rule="evenodd" d="M20.6482 287.441C21.4647 289.744 23.816 291.246 26.2255 291.652C28.6349 292.058 31.1029 291.54 33.4473 290.851C41.8178 288.39 49.2842 283.821 56.7643 279.243C60.5717 276.913 64.3826 274.58 68.3182 272.523C80.9158 265.936 95.2697 262.126 109.401 263.667C114.097 264.179 118.846 265.325 122.744 267.993C126.643 270.662 129.573 275.068 129.526 279.792C129.484 284.008 127.176 287.84 124.758 291.294C122.926 293.911 120.94 296.497 118.318 298.323C115.666 300.171 112.491 301.142 109.3 301.657C103.678 302.565 97.5807 302.032 92.8588 298.848C88.1369 295.664 85.2581 289.409 87.1459 284.036C88.053 281.454 89.9305 279.3 92.1089 277.644C96.4434 274.35 102.69 272.96 107.381 275.724C112.072 278.488 113.482 286.155 109.146 289.449C107.243 290.894 104.731 291.264 102.341 291.247C100.874 291.236 99.3057 291.057 98.1821 290.115C97.0584 289.172 96.6879 287.227 97.7926 286.262C99.0592 285.156 101.437 286.672 100.968 288.287C103.976 290.421 108.724 287.663 109.013 283.986C109.302 280.309 105.965 277.007 102.308 276.528C98.6509 276.049 94.9899 277.884 92.4166 280.527C91.1563 281.821 90.0859 283.337 89.5257 285.054C88.1461 289.284 90.2234 294.136 93.7709 296.821C97.3184 299.507 102.024 300.279 106.453 299.861C110.76 299.455 115.035 297.954 118.327 295.147C120.053 293.675 121.474 291.882 122.81 290.048C124.736 287.407 126.564 284.509 126.868 281.255C127.305 276.582 124.384 272.06 120.45 269.501C116.517 266.941 111.73 266.049 107.049 265.718C97.7164 265.058 88.245 266.437 79.4881 269.73C72.1544 272.488 65.386 276.537 58.6275 280.58C50.5816 285.393 42.5495 290.198 33.594 292.807C28.7297 294.224 22.1909 294.248 20.0409 289.66C19.6563 288.839 19.7439 287.504 20.6482 287.441Z" fill="#6CEAE2"/>
<path fill-rule="evenodd" clip-rule="evenodd" d="M251.288 339.494C241.752 351.678 215.721 342.267 204.54 335.15C193.358 328.033 197.651 321.139 197.651 317.767C197.651 314.395 196.883 310.272 195.013 307.357C193.143 304.442 163.572 291.943 163.572 278.214C163.572 265.408 172.436 253.692 184.835 248.385C204.54 239.951 214.179 245.314 232.387 252.72C250.595 260.127 249.098 278.214 249.098 278.214C249.098 278.214 264.031 323.21 251.288 339.494Z" fill="#E7EAEE"/>
<path d="M239.542 346.24C199.26 343.609 161.533 317.709 143.797 281.446C126.062 245.183 128.591 199.992 149.495 165.458C170.399 130.925 208.78 107.851 249.023 104.674C259.43 103.853 270.06 104.299 280.035 107.377C290.869 110.72 300.608 117.055 311.491 120.236C326.453 124.609 342.366 121.309 355.816 113.43C365.817 107.571 374.854 99.9344 385.595 95.5787C398.145 90.4891 412.842 92.3869 424.831 98.6861C436.82 104.985 446.316 115.299 453.633 126.695C475.421 160.628 478.651 202.824 481.264 243.064C482.7 265.175 484.023 288.092 476.122 308.794C468.951 327.582 454.802 342.804 440.038 356.458C424.382 370.937 407.531 384.327 388.687 394.31C351.958 413.767 308.99 419.395 267.592 415.68C226.194 411.965 186.074 399.341 147.443 384.003C125.881 375.442 102.634 398.523 79.9329 393.739C65.9069 390.783 56.0786 377.942 42.7494 372.67C28.4255 367.004 10.695 371.566 0.884766 383.442C9.47055 362.662 38.8628 354.015 57.3332 366.836C66.6799 373.324 79.2115 372.919 90.2614 370.207C101.311 367.496 111.887 362.753 123.173 361.308C139.326 359.239 155.482 364.067 171.716 365.359C191.574 366.939 211.429 363.211 231.001 359.501C252.082 355.504 273.163 351.508 294.244 347.511C304.416 345.583 314.761 343.595 323.917 338.764C334.229 333.324 342.614 324.314 347.302 313.639C312.191 343.064 259.423 344.613 239.542 346.24Z" fill="white"/>
<path fill-rule="evenodd" clip-rule="evenodd" d="M254.288 340.494C244.752 352.678 218.721 343.267 207.54 336.15C196.358 329.033 200.651 322.139 200.651 318.767C200.651 315.395 199.883 311.272 198.013 308.357C196.143 305.442 166.572 292.943 166.572 279.214C166.572 266.408 175.436 254.692 187.835 249.385C207.54 240.951 217.179 246.314 235.387 253.72C253.595 261.127 252.098 279.214 252.098 279.214C252.098 279.214 267.031 324.21 254.288 340.494Z" fill="#E7EAEE"/>
<path fill-rule="evenodd" clip-rule="evenodd" d="M293.804 283.628C294.097 284.868 295.477 286.109 296.523 285.382C301.986 281.58 307.47 277.767 313.389 274.722C317.202 272.762 321.283 271.056 324.252 267.963C320.652 269.716 316.4 269.449 312.479 268.639C308.557 267.829 304.714 266.513 300.717 266.278C297.293 266.076 293.823 266.69 290.676 268.054C288.783 268.875 286.923 270.049 285.953 271.869C284.983 273.69 285.213 276.269 286.908 277.445C288.736 278.713 291.676 278.118 292.952 279.94C293.683 280.983 293.512 282.388 293.804 283.628Z" fill="#E7EAEE"/>
<path fill-rule="evenodd" clip-rule="evenodd" d="M345.911 165.674C354.084 180.314 364.488 190.768 357.862 197.415C352.118 203.179 354.122 193.152 347.604 191C343.277 189.572 334.045 192.517 325.965 192.179C314.834 191.712 313.292 199.044 305.004 198.655C292.107 198.048 274.556 189.583 269.162 187.5C262.686 184.999 264.626 176.331 269.162 172.22C270.832 170.707 276.303 175.136 276.907 173.109C279.152 165.575 274.282 158.852 278 157.846C279.71 157.384 285.95 159.425 288.312 161.846C291.086 164.688 293.879 168.918 299.61 167.199C310.221 164.015 308.858 157.076 317.152 157.076C325.445 157.076 336.284 163.151 341.507 164.939C346.73 166.726 337.737 151.034 345.911 165.674Z" fill="#E7EAEE"/>
<path fill-rule="evenodd" clip-rule="evenodd" d="M261.634 239.504C262.719 242.737 264.945 245.569 267.465 247.866C269.824 250.016 273.582 251.849 273.113 255.006C277.787 250.065 284.778 247.416 291.552 248.017C293.85 248.221 296.107 248.775 298.406 248.953C306.853 249.61 314.778 245.226 322.113 240.986C327.38 237.94 332.648 234.895 337.916 231.849C339.137 229.313 338.192 226.144 336.306 224.054C334.42 221.964 331.768 220.747 329.141 219.735C326.293 218.639 323.328 217.706 320.277 217.644C317.3 217.583 313.405 217.842 312.329 215.065C310.902 211.38 307.417 208.572 303.513 207.96C299.609 207.348 295.433 208.955 292.946 212.027C290.372 215.206 286.166 216.429 282.322 217.828C277.665 219.524 273.189 221.713 268.992 224.348C265.473 226.558 261.833 229.64 261.634 233.79C261.55 235.555 261.072 237.829 261.634 239.504Z" fill="#E7EAEE"/>
<path fill-rule="evenodd" clip-rule="evenodd" d="M272.625 146.306C278.155 147.884 283.339 142.726 289.058 142.118C293.731 141.622 298.35 144.227 303.006 143.591C304.687 143.362 306.671 141.795 305.786 140.348C305.27 139.502 304.105 139.399 303.114 139.39C297.731 139.337 292.348 139.284 286.965 139.232C285.214 139.215 283.316 139.147 281.957 138.043C279.128 135.745 275.684 134.338 272.211 133.235C267.461 131.727 262.547 130.728 257.582 130.302C252.162 129.837 246.683 130.057 241.317 130.955C239.212 133.689 237.106 136.422 235.001 139.156C232.417 142.511 228.952 146.241 224.773 145.548C219.321 144.644 213.589 145.514 208.649 147.993C213.617 146.352 219.117 146.369 224.074 148.042C227.22 149.104 230.131 150.803 233.312 151.758C241.221 154.132 249.714 151.662 257.444 148.757C262.331 146.92 267.604 144.873 272.625 146.306Z" fill="#E7EAEE"/>
<path d="M366.478 208.669C366.605 209.76 367.303 210.69 368.009 211.531C371.569 215.772 376.144 219.355 381.496 220.774C391.399 223.4 402.046 217.991 408.513 210.044C414.979 202.097 418.117 192.023 420.991 182.188C421.821 179.349 423.054 176.078 425.903 175.283C428.982 174.423 431.547 171.911 432.472 168.851C433.397 165.79 432.652 162.279 430.564 159.857C428.203 157.119 423.113 156.332 421.313 159.468C420.614 160.686 418.905 160.969 417.57 160.534C416.234 160.098 415.153 159.131 414.022 158.297C407.02 153.131 397.678 152.837 388.977 152.747C386.223 152.719 383.436 152.694 380.76 153.344C375.228 154.688 370.753 158.752 365.416 160.733C358.592 163.266 350.498 162.025 344.747 157.563C350.992 167.45 356.207 177.988 360.279 188.95C360.576 191.152 365.757 202.461 366.478 208.669Z" fill="white"/>
<path fill-rule="evenodd" clip-rule="evenodd" d="M226.435 169.726C224.992 166.216 222.827 162.092 219.035 161.951C218 161.913 216.985 162.202 215.964 162.376C210.519 163.301 203.808 156.455 201.767 155.901C199.725 155.346 197.25 159.195 194.664 160.351C192.078 161.507 189.362 163.352 188.986 166.16C188.685 168.407 189.994 170.767 189.202 172.891C188.078 175.905 183.532 176.419 182.338 179.407C181.294 182.018 183.417 184.753 185.465 186.681C190.033 190.98 195.434 195.52 195.885 201.776C196.053 204.119 198.245 205.71 200.171 207.053C207.27 212.003 213.551 218.123 218.684 225.091C217.509 223.469 218.123 221.105 219.39 219.553C220.657 218.002 222.443 216.98 223.959 215.67C226.928 213.105 228.843 209.447 231.976 207.085C235.921 204.112 241.13 203.641 245.993 202.772C250.856 201.902 256.118 200.164 258.543 195.86C258.779 195.441 258.989 194.976 258.942 194.498C258.81 193.139 257.008 192.832 255.861 192.091C253.713 190.701 253.87 187.591 253.132 185.141C252.058 181.575 248.707 179.066 245.141 177.992C241.576 176.918 237.775 177.042 234.053 177.175C230.261 177.311 227.878 173.235 226.435 169.726Z" fill="#E7EAEE"/>
<path d="M593.735 400.894C593.319 401.254 592.91 400.341 593.226 399.89C593.673 399.76 593.819 400.473 593.717 400.927L593.735 400.894Z" fill="black"/>
<path fill-rule="evenodd" clip-rule="evenodd" d="M433.435 312.165C430.926 313.109 427.867 312.332 426.113 310.305C425.22 309.273 423.501 309.9 422.483 310.808C421.464 311.717 420.461 312.923 419.097 312.914C417.699 312.906 416.63 311.508 416.478 310.119C416.327 308.729 416.851 307.365 417.365 306.065C415.454 306.429 413.445 306.788 411.595 306.185C409.745 305.582 408.168 303.663 408.656 301.78C408.835 301.091 409.261 300.49 409.752 299.974C411.38 298.267 413.829 297.381 416.172 297.654C417.313 297.786 417.712 296.178 417.614 295.034C417.429 292.854 417.077 290.614 417.689 288.513C418.301 286.412 420.246 284.493 422.415 284.78C425.167 285.145 426.323 288.469 426.629 291.229C426.733 292.172 427.517 293.463 428.252 292.864C430.616 290.938 434.391 291.046 436.641 293.104C437.509 293.898 438.172 295.012 438.112 296.188C438.041 297.557 437.02 298.702 435.882 299.466C434.744 300.23 433.444 300.737 432.336 301.545C434.747 303.16 437.279 305.587 436.784 308.446C436.485 310.166 435.069 311.55 433.435 312.165M422.792 302.867C422.852 303.145 422.912 303.423 422.972 303.701C420.957 304.713 420.335 307.241 419.933 309.46C420.535 309.913 421.371 309.324 421.802 308.706C422.743 307.354 423.187 305.727 423.878 304.232C424.569 302.736 425.643 301.264 427.225 300.805C427.883 300.614 428.58 300.614 429.253 300.482C430.684 300.2 431.924 299.339 433.116 298.498C433.782 298.029 434.485 297.512 434.758 296.745C435.367 295.029 433.235 293.351 431.444 293.679C429.652 294.008 428.355 295.535 427.302 297.022C426.25 298.508 425.188 300.134 423.517 300.857C423.032 301.067 422.476 301.189 421.979 301.012C421.482 300.834 421.099 300.273 421.267 299.773C421.436 299.273 422.262 299.125 422.496 299.597C422.915 299.405 423.114 298.841 422.91 298.429C420.784 298.807 418.659 299.185 416.534 299.564C415.366 299.772 414.155 299.997 413.193 300.691C412.231 301.384 411.6 302.691 412.061 303.783C415.145 305.822 419.201 301.985 422.792 302.867M428.149 303.072C426.693 303.352 426.143 305.308 426.705 306.68C427.268 308.052 428.525 308.986 429.639 309.965C430.717 310.912 432.593 310.474 433.363 309.263C434.133 308.053 433.886 306.377 433.016 305.236C432.146 304.095 430.766 303.435 429.363 303.138C428.963 303.053 428.549 302.995 428.149 303.072M424.26 293.642C424.176 291.511 423.963 289.108 422.309 287.763C421.804 287.353 421.157 288.082 420.953 288.699C420.431 290.274 420.19 291.942 420.244 293.6C420.271 294.429 420.384 295.292 420.846 295.981C421.309 296.669 422.206 297.126 422.988 296.848C424.153 296.434 424.308 294.877 424.26 293.642L424.26 293.642Z" fill="#FFB61D"/>
<path fill-rule="evenodd" clip-rule="evenodd" d="M422.213 124.714C421.219 124.023 420.225 123.333 419.231 122.642C420.729 121.563 422.943 121.88 424.354 123.071C425.764 124.262 426.448 126.141 426.573 127.982C426.669 129.387 426.358 130.996 425.166 131.743C424.017 132.463 422.528 132.11 421.225 131.735C420.151 131.425 419.076 131.115 418.001 130.806C416.873 130.48 415.878 131.609 415.335 132.65C414.792 133.691 414.166 134.937 413.002 135.092C411.453 135.299 410.537 133.491 409.434 132.384C406.222 129.16 399.809 131.472 396.843 128.021C395.58 126.551 395.397 124.326 396.164 122.546C396.93 120.766 398.534 119.428 400.335 118.713C401.067 118.423 401.853 118.215 402.468 117.725C403.084 117.235 403.477 116.341 403.106 115.647C402.26 114.064 401.398 112.428 401.223 110.642C401.047 108.856 401.729 106.862 403.312 106.017C404.845 105.199 406.821 105.682 408.172 106.775C409.523 107.867 410.367 109.457 411.082 111.041C411.286 111.494 411.506 111.978 411.929 112.24C412.352 112.501 413.038 112.389 413.174 111.911C413.866 109.49 417.137 108.485 419.374 109.639C421.611 110.793 422.738 113.479 422.666 115.995C422.64 116.892 422.475 117.814 421.972 118.556C421.618 119.078 421.119 119.481 420.619 119.866C419.12 121.02 417.548 122.079 415.915 123.036C415.843 126.145 418.361 129.102 421.441 129.529C422.487 129.674 423.737 129.448 424.233 128.516C424.975 127.123 423.509 125.615 422.213 124.714M416.516 119.559C418.253 119.335 419.8 118.017 420.297 116.337C420.795 114.658 420.214 112.71 418.879 111.576C418.615 111.353 418.308 111.152 417.963 111.13C417.558 111.104 417.184 111.325 416.839 111.538C414.347 113.076 411.548 115.145 411.606 118.073C411.667 121.165 410.632 124.268 408.725 126.703C408.037 127.583 408.558 128.904 409.335 129.707C410.112 130.509 411.135 131.108 411.663 132.092C412.031 132.779 413.135 132.693 413.656 132.114C414.178 131.535 414.267 130.696 414.303 129.918C414.441 127.007 414.197 124.079 413.579 121.232C413.443 120.603 413.997 120.008 414.606 119.799C415.215 119.59 415.878 119.642 416.516 119.559M409.039 121.508C407.995 122.085 406.861 121.015 405.841 120.394C403.01 118.671 398.939 120.905 398.16 124.127C397.856 125.385 398.755 126.685 399.908 127.274C401.061 127.863 402.405 127.911 403.7 127.946C404.563 127.97 405.506 127.969 406.185 127.434C406.629 127.084 406.888 126.556 407.127 126.043C407.82 124.556 408.458 123.043 409.039 121.508M405.515 107.873C404.5 107.812 403.635 108.741 403.432 109.737C403.229 110.734 403.531 111.76 403.889 112.712C405.079 115.873 406.942 118.778 409.317 121.18C409.887 116.866 410.245 111.875 407.18 108.786C406.724 108.326 406.162 107.911 405.515 107.873V107.873Z" fill="#E7EAEE"/>
<path fill-rule="evenodd" clip-rule="evenodd" d="M194.974 222.992C192.224 224.498 190.454 227.636 190.587 230.769C190.644 232.125 190.88 233.815 189.728 234.533C188.778 231.252 189.224 227.591 190.933 224.634C191.355 223.904 191.877 223.192 192.621 222.795C193.365 222.398 194.375 222.399 194.974 222.992V222.992Z" fill="#00160A"/>
<circle cx="413" cy="185.5" r="3.5" fill="#FFB61D"/>
<path fill-rule="evenodd" clip-rule="evenodd" d="M302.396 296.39C302.676 295.193 303.224 293.898 304.368 293.45C306.889 292.462 308.864 296.299 311.564 296.505C313.039 296.618 314.359 295.608 315.817 295.36C318.233 294.948 320.75 297.093 320.727 299.544C320.707 301.623 319.176 303.437 319.04 305.511C317.676 305.274 316.144 305.833 315.441 307.027C314.738 308.22 315.103 309.989 316.328 310.636C317.553 311.282 319.354 310.38 319.397 308.996C319.42 308.249 319 307.561 318.89 306.822C318.781 306.083 319.247 305.127 319.986 305.239C321.416 306.16 322.188 308 321.843 309.665C321.499 311.33 320.059 312.712 318.381 312.988C317.866 313.073 317.317 313.069 316.862 313.324C316.084 313.76 315.873 314.753 315.572 315.592C314.988 317.219 313.721 318.641 312.082 319.193C310.443 319.744 308.457 319.309 307.356 317.976C306.255 316.642 306.271 314.451 307.534 313.269C306.756 312.874 305.956 313.691 305.224 314.167C303.38 315.366 300.628 314.161 299.856 312.102C299.085 310.042 300.025 307.614 301.704 306.194C302.241 305.74 302.922 305.16 302.709 304.49C301.882 301.884 301.772 299.053 302.396 296.39M310.48 306.244C309.818 308.989 309.155 311.742 308.81 314.545C308.707 315.38 308.693 316.371 309.354 316.892C310.066 317.454 311.14 317.106 311.845 316.534C313.736 314.997 314.148 311.939 312.731 309.956C311.734 308.56 312.641 306.564 313.907 305.406C315.174 304.247 316.805 303.438 317.725 301.99C318.645 300.541 318.26 298.076 316.565 297.806C315.246 297.596 313.8 297.961 312.881 298.931C312.049 299.808 311.735 301.041 311.452 302.216C311.128 303.559 310.804 304.901 310.48 306.244M308.172 304.245C309.415 303.553 309.623 301.824 309.305 300.437C308.941 298.849 308.077 297.38 306.867 296.288C306.58 296.029 306.25 295.781 305.865 295.744C304.823 295.645 304.332 296.983 304.192 298.02C303.986 299.548 303.792 301.168 304.419 302.576C305.046 303.983 306.825 304.995 308.172 304.245M302.401 311.636C303.267 312.697 305.052 312.08 305.953 311.049C306.854 310.019 307.42 308.643 308.599 307.946C309.11 307.644 308.708 306.761 308.122 306.666C307.536 306.57 306.985 306.923 306.453 307.185C305.396 307.706 304.187 307.92 303.226 308.6C302.264 309.28 301.657 310.723 302.401 311.636Z" fill="#FFB61D"/>
<path d="M592.193 384.727C592.649 384.56 592.814 385.353 592.569 385.773C592.105 385.936 591.939 385.143 592.172 384.71L592.193 384.727Z" fill="black"/>
<path fill-rule="evenodd" clip-rule="evenodd" d="M432.472 168.851C433.656 165.795 432.652 162.279 430.564 159.857C428.203 157.119 423.113 156.332 421.313 159.468C420.614 160.686 418.905 160.969 417.57 160.534C416.234 160.098 415.153 159.131 414.022 158.297C407.02 153.131 397.678 152.837 388.977 152.747C386.223 152.719 383.436 152.694 380.76 153.344C375.228 154.688 370.753 158.752 365.416 160.733C358.592 163.266 350.498 162.025 344.747 157.563C347.072 161.244 353.462 173.142 353.462 173.142C353.462 173.142 352.312 167.584 354.031 167.074C357.191 166.136 361.211 168.03 364.315 167.594C375.885 165.969 382.008 160.33 386.503 159.857C417.57 156.587 429.395 176.79 432.472 168.851Z" fill="#E7EAEE"/>
<path fill-rule="evenodd" clip-rule="evenodd" d="M440.038 348.458C424.382 362.937 407.531 376.327 388.687 386.309C351.958 405.766 308.99 411.395 267.592 407.68C226.194 403.965 186.074 391.341 147.443 376.003C136.518 371.665 234.749 402.713 313.484 395.167C390.143 387.819 447.321 341.722 440.038 348.458Z" fill="#E7EAEE"/>
<circle cx="375" cy="205" r="5" fill="#FFB61D"/>
<path d="M217.923 232.54C220.553 237.354 224.94 241.079 227.27 246.046C230.057 251.988 263.978 306.162 265.155 306.357C267.601 306.763 271.789 302.734 271.351 304.092C271.181 303.827 309.941 325.321 302.069 330.568C293.029 336.594 274.355 343.064 250.816 343.064C241.723 341.032 236.061 332.209 231.397 324.143C217.266 299.706 203.101 275.087 193.52 248.534C192.407 245.452 191.23 242.164 188.626 240.176C186.455 238.517 183.626 238.035 180.91 237.74C174.11 237.004 167.239 237.737 160.447 238.103C152.519 238.53 152.519 234.627 154.683 233.436C157.987 231.618 161.582 230.913 164.165 228.578C160.532 230.2 159.164 230.959 155.218 231.472C151.272 231.984 153.1 228.763 153.292 227.244C152.691 229.611 149.274 231.174 147.374 229.333C144.905 226.94 148.393 221.492 150.981 220.044C151.422 219.797 165.846 212.337 166.844 211.733C165.574 211.436 152.893 220.344 148.726 219.001C146.016 218.127 148.859 213.376 151.483 210.41C159.606 201.229 157.457 204.364 160.443 201.341C162.108 199.656 164.802 199.728 167.163 199.917C170.726 200.202 185.045 199.129 196.876 206.908C207.987 214.213 216.717 230.332 217.923 232.54Z" fill="white"/>
<path fill-rule="evenodd" clip-rule="evenodd" d="M441.589 45.7306C439.665 46.2537 438.06 47.8181 437.487 49.7273C437.067 51.125 437.18 52.6214 437.337 54.0722C437.594 56.4466 438.034 58.9645 439.656 60.7169C441.417 59.0829 441.431 56.3191 441.034 53.95C440.976 53.6036 440.912 53.2546 440.848 52.9043L440.847 52.9013L440.847 52.8981C440.473 50.8546 440.09 48.7632 440.792 46.8387C442.654 49.7688 443.24 53.4795 442.372 56.8407L447.906 54.5604C448.945 54.1324 450.178 54.748 450.819 55.6711C451.459 56.5941 451.649 57.7467 451.823 58.8567C452.236 61.5014 452.323 64.8556 449.967 66.1257C449.28 66.4961 448.319 67.3185 448.962 67.7604C450.887 69.0826 451.398 72.0248 450.122 73.9806C448.847 75.9364 446.053 76.6757 443.927 75.7099C441.801 74.7441 440.526 72.2523 440.868 69.9424L436.008 73.0538C435.562 73.3391 435.062 73.6366 434.54 73.5517C433.887 73.4454 433.485 72.7992 433.17 72.2175C431.928 69.923 430.675 67.1233 431.927 64.834C429.838 64.3013 427.938 62.8918 427.038 60.9331C426.139 58.9743 426.361 56.487 427.775 54.8597C429.188 53.2325 431.788 52.6928 433.631 53.8097C434.494 54.3325 435.144 52.88 435.178 51.8718C435.273 49.1229 436.153 46.0659 438.583 44.7771C439.699 44.1851 441.568 44.4674 441.589 45.7306ZM445.006 64.0379C446.923 65.1209 449.715 63.9683 450.309 61.8488C450.904 59.7293 449.118 57.2929 446.918 57.2212C444.268 57.1349 442.418 59.7969 441.415 62.2522C441.014 63.2361 439.552 62.9754 438.607 62.4886C437.663 62.0018 436.321 61.5381 435.701 62.4016C434.885 63.5396 433.64 64.3623 432.273 64.6674C433.065 65.2987 433.355 66.292 433.647 67.2907C433.776 67.7315 433.905 68.1733 434.078 68.5856C434.642 69.932 436.548 71.0347 437.455 69.8911C439.046 67.8852 440.899 66.087 442.952 64.5565C443.553 64.1085 444.354 63.6692 445.006 64.0379ZM430.765 55.6863C429.781 55.4267 428.766 56.3051 428.578 57.3061C428.391 58.3072 428.83 59.3267 429.419 60.1575C429.687 60.5356 429.993 60.8956 430.381 61.1496C431.378 61.8031 432.71 61.6349 433.821 61.2034C434.268 61.03 434.699 60.8188 435.131 60.6077C435.773 60.2934 436.414 59.9795 437.102 59.7918C435.495 57.7997 433.24 56.3388 430.765 55.6863ZM448.521 72.3847C448.941 71.5472 448.671 70.4959 448.1 69.7532C447.528 69.0105 446.706 68.5102 445.903 68.0271L444.59 67.2365C444.085 66.9328 443.484 66.619 442.936 66.8365C442.02 67.2004 442.191 68.5379 442.543 69.4586C443.05 70.7812 443.65 72.1658 444.818 72.9665C445.986 73.7673 447.886 73.6507 448.521 72.3847ZM344.635 63.7928C345.395 64.5241 345.502 65.8738 344.78 66.6433C344.059 67.4128 342.599 67.3272 342.056 66.4225C341.764 65.9362 341.757 65.355 341.751 64.7772C341.749 64.5953 341.747 64.4137 341.736 64.2356C341.69 63.4914 341.07 61.7735 340.906 61.3781C338.89 59.7272 338.124 57.0093 337.716 54.4356C337.411 52.5127 337.257 50.4743 338.012 48.6799C338.768 46.8855 340.692 45.4489 342.596 45.8543C344.804 46.3244 345.861 48.7931 346.572 50.9357C347.152 52.6852 347.532 55.0387 345.958 55.9965C345.688 53.6614 345.365 51.192 343.902 49.3522C342.974 48.1846 341.061 47.4212 340.068 48.5347C339.642 49.0131 339.539 49.6923 339.491 50.3314C339.12 55.2795 341.059 60.3532 344.635 63.7928ZM340.949 75.3134L340.66 75.358C338.07 75.7584 335.381 76.1743 333.348 73.8416C331.24 71.4219 330.505 66.1463 331.647 64.7709C333.253 62.8359 335.817 61.694 338.338 61.86C338.446 62.121 338.377 62.7064 338.307 63.2974C338.236 63.8995 338.164 64.5073 338.279 64.7835C336.531 63.8745 334.142 64.4986 333.062 66.1463C332.928 66.3507 332.809 66.5984 332.882 66.8315C333.457 68.6604 334.084 70.5656 335.452 71.9077C336.821 73.2498 339.174 73.797 340.659 72.5853C341.134 72.1977 341.47 71.6812 341.806 71.1632L341.806 71.1629C342.077 70.7458 342.349 70.3276 342.695 69.9751C343.47 69.1846 345.04 68.9267 345.525 69.9222C344.35 71.1014 343.235 72.3398 342.184 73.6312C341.934 73.9393 341.685 74.3956 341.945 74.696C342.581 75.4321 342.703 76.4312 342.823 77.4186C342.857 77.6931 342.89 77.9666 342.934 78.2333C343.138 79.4598 343.912 80.8525 345.155 80.8223C346.204 80.7968 346.911 79.776 347.437 78.8683L349.416 75.4558C349.99 75.5257 350.363 76.1547 350.351 76.7335C350.339 77.3124 350.045 77.8434 349.749 78.3409C348.836 79.8733 347.829 81.3501 346.737 82.7601C346.404 83.1898 346.023 83.6397 345.493 83.7634C344.944 83.8916 344.381 83.6327 343.908 83.3251C341.351 81.6609 340.088 78.2401 340.949 75.3134ZM352.225 54.1165C353.104 53.6746 354.292 53.6865 354.956 54.4124C356.421 57.9536 355.437 62.363 352.606 64.9459C352.539 65.0072 352.47 65.0682 352.402 65.1296C351.934 65.5458 351.452 65.9755 351.292 66.5708C351.108 67.2537 351.697 68.151 352.368 67.9277C352.835 67.7722 352.984 67.2466 353.126 66.7481L353.127 66.7453C353.157 66.6385 353.187 66.5329 353.22 66.4326C353.629 65.1784 354.996 64.3144 356.305 64.4836C357.985 65.2079 361.389 67.166 360.746 72.3552C360.17 76.9974 357.875 76.7797 357.056 76.702C356.96 76.6929 356.884 76.6857 356.833 76.6886C354.612 76.8175 353.281 74.3986 352.199 72.4314L352.139 72.3229C351.629 71.3965 350.478 70.3962 349.681 71.0914C349.37 71.3629 349.277 71.8022 349.219 72.2111C349.13 72.8372 349.104 73.5394 349.501 74.0312C349.898 74.5231 350.865 74.518 351.034 73.9088C351.238 75.7562 352.248 77.541 353.838 78.5028C355.429 79.4647 357.588 79.4975 359.107 78.427C360.205 77.6537 360.885 76.4204 361.389 75.1755C361.851 74.0334 362.198 72.8281 362.224 71.5965C362.287 68.6003 360.406 65.827 357.985 64.061C357.353 63.6003 356.599 63.0291 356.679 62.2514L357.035 58.7819C357.206 57.1103 357.369 55.3662 356.768 53.7968C356.167 52.2275 354.55 50.9096 352.902 51.2399C351.584 51.5042 350.76 52.624 349.928 53.7557C349.171 54.7851 348.407 55.8244 347.256 56.239C345.984 56.6976 345.919 58.4486 346.087 59.7911C346.143 60.2425 346.21 60.7191 346.493 61.0751C346.777 61.4311 347.356 61.5922 347.691 61.2838C347.606 59.3437 348.881 57.639 350.091 56.1204C350.704 55.3511 351.346 54.5585 352.225 54.1165ZM237.212 129.112C239.698 126.918 243.138 126.195 246.434 125.843C258.014 124.606 269.957 127.044 280.126 132.718C280.327 132.83 280.528 132.944 280.729 133.058C282.586 134.107 284.489 135.182 286.602 135.313C287.266 135.354 287.929 135.299 288.592 135.244C289.172 135.197 289.752 135.149 290.333 135.165C291.722 135.204 293.02 135.41 294.303 135.614C296.71 135.997 299.066 136.372 301.882 135.617C305.916 134.537 306.51 135.596 306.939 137.764C307.368 139.932 305.805 142.124 303.797 143.046C301.788 143.967 299.464 143.872 297.282 143.522C296.65 143.421 296.021 143.3 295.391 143.179L295.391 143.179C293.845 142.881 292.299 142.584 290.728 142.581C287.621 142.575 284.536 143.703 281.499 144.814C277.207 146.384 273.01 147.919 268.984 146.167C267.559 145.548 265.92 145.987 264.432 146.433L248.698 151.147C244.804 152.313 240.778 153.493 236.74 153.029C233.534 152.661 230.576 151.288 227.618 149.916C224.637 148.532 221.656 147.149 218.422 146.795C215.698 146.497 212.939 146.949 210.193 147.399C206.698 147.971 203.226 148.539 199.88 147.552C200.062 146.689 201.004 146.252 201.83 145.943C206.874 144.057 212.001 142.153 217.37 141.748C218.254 141.681 219.157 141.651 220.063 141.621C223.344 141.512 226.663 141.401 229.287 139.547C231.206 138.191 232.396 136.136 233.59 134.072C234.632 132.273 235.677 130.467 237.212 129.112ZM271.625 144.306C274.888 145.237 278.029 143.823 281.232 142.383C283.458 141.382 285.713 140.367 288.058 140.118C290.345 139.875 292.619 140.375 294.891 140.874C297.261 141.395 299.629 141.915 302.006 141.591C303.687 141.362 305.671 139.795 304.786 138.347C304.27 137.502 303.105 137.399 302.114 137.389L285.965 137.231C284.214 137.214 282.316 137.147 280.957 136.043C278.128 133.745 274.684 132.338 271.211 131.235C266.461 129.727 261.548 128.727 256.582 128.302C251.162 127.837 245.683 128.057 240.317 128.955L234.001 137.155C231.417 140.511 227.952 144.24 223.773 143.548C218.321 142.644 212.589 143.513 207.649 145.993C212.617 144.351 218.117 144.369 223.074 146.042C224.527 146.533 225.93 147.159 227.332 147.785L227.333 147.785C228.967 148.515 230.6 149.244 232.312 149.758C240.221 152.132 248.714 149.662 256.444 146.757L256.722 146.652C261.53 144.844 266.699 142.9 271.625 144.306ZM226.576 211.729C229.366 208.373 232.08 205.11 236.237 204.952C242.705 204.707 249.056 202.394 254.269 198.557C255.533 197.626 256.792 196.521 257.249 195.019C257.707 193.517 256.997 191.568 255.465 191.225C252.497 190.56 251.364 187.466 250.25 184.423C249.893 183.449 249.539 182.48 249.126 181.597C247.368 177.837 243.703 175.029 239.615 174.312C238.065 174.039 236.488 174.052 234.911 174.064H234.911C233.513 174.075 232.114 174.086 230.732 173.9C227.792 173.502 224.65 171.777 224.112 168.858C222.752 161.48 214.362 156.245 207.137 158.267C205.079 158.843 203.331 157.517 201.527 156.149C200.103 155.069 198.645 153.963 196.973 153.745C195.518 153.556 194.076 154.074 192.701 154.584C189.6 155.732 186.417 156.931 183.972 159.157C181.528 161.383 179.969 164.913 181.007 168.052C181.626 169.923 180.083 171.812 178.451 172.919C178.115 173.147 177.764 173.367 177.413 173.587C176.062 174.434 174.693 175.293 174.01 176.7C172.981 178.82 173.925 181.378 175.247 183.329C176.702 185.477 178.638 187.404 180.557 189.314C184.243 192.984 187.865 196.59 187.891 201.573L167.163 199.917C164.802 199.728 162.108 199.655 160.443 201.34C159.448 202.348 159.023 202.671 158.598 202.995C157.748 203.642 156.899 204.289 151.483 210.409C148.859 213.376 146.016 218.127 148.726 219C151.461 219.882 157.863 216.348 162.3 213.898L162.3 213.898L162.3 213.898L162.301 213.898C164.624 212.616 166.408 211.631 166.844 211.733C166.158 212.148 159.141 215.796 154.669 218.121C152.629 219.181 151.119 219.966 150.981 220.044C148.393 221.492 144.905 226.939 147.374 229.333C149.274 231.174 152.69 229.611 153.292 227.244C153.254 227.544 153.152 227.909 153.044 228.299C152.603 229.888 152.05 231.883 155.218 231.472C158.763 231.011 160.227 230.351 163.123 229.046C163.307 228.963 163.496 228.877 163.692 228.789C163.846 228.72 164.003 228.65 164.165 228.577C162.553 230.034 160.548 230.857 158.465 231.711L158.465 231.711C157.209 232.226 155.925 232.752 154.683 233.436C152.519 234.627 152.519 238.53 160.447 238.103C161.793 238.03 163.142 237.943 164.494 237.856H164.494L164.495 237.856L164.495 237.856L164.496 237.856L164.497 237.856L164.498 237.856L164.498 237.856L164.499 237.856C169.963 237.504 175.459 237.15 180.91 237.74C183.626 238.034 186.455 238.517 188.626 240.175C191.218 242.155 192.396 245.422 193.504 248.491L193.519 248.534C203.101 275.087 217.266 299.706 231.397 324.143C236.061 332.209 241.722 341.032 250.816 343.064C226.719 313.736 207.823 280.148 195.268 244.327C193.815 240.181 189.885 237.29 185.697 235.96C181.51 234.63 177.033 234.622 172.639 234.627C169.854 234.63 167.591 235.034 165.4 235.425C162.519 235.939 159.764 236.431 156.113 235.96C153.172 235.58 155.661 234.551 159.196 233.09C162.758 231.617 167.382 229.706 168.582 227.578C167.2 225.382 163.8 226.326 161.627 227.743C159.454 229.16 152.726 231.35 154.349 228.577C156.359 225.144 159.937 223.288 163.542 221.418L163.543 221.418C164.682 220.827 165.824 220.235 166.92 219.591C168.118 218.887 167.219 216.796 165.846 216.59C164.472 216.384 163.208 217.298 162.121 218.162C160.922 219.115 159.553 220.494 158.14 221.919C154.822 225.265 151.259 228.858 149.071 227.743C144.313 225.319 159.434 217.315 167.808 212.882L167.817 212.877C168.359 212.59 168.873 212.318 169.351 212.064C167.45 208.791 162.351 210.403 159.483 212.873L159.374 212.967C159.26 213.065 159.146 213.164 159.03 213.264C156.258 215.665 153.001 218.485 149.641 217.228C147.644 216.481 150.535 214.108 153.426 211.735C154.872 210.549 156.318 209.362 157.152 208.379C158.554 206.727 160.001 205.038 161.902 203.999C164.228 202.727 166.983 202.56 169.634 202.536C176.233 202.476 182.838 203.127 189.299 204.473C198.7 210.702 206.828 218.844 213.042 228.256C227.548 250.229 241.755 272.398 255.961 294.566C256.125 294.821 256.423 295.313 256.815 295.961C258.902 299.41 263.661 307.277 265.154 307.463C266.806 307.67 268.516 306.292 269.726 305.223L327.792 269.078C337.231 263.202 347.677 257.091 358.703 258.52C376.567 260.835 394.688 262.94 412.54 260.542C430.393 258.145 448.212 250.751 459.779 236.942C438.878 253.592 411.44 261.797 384.829 259.357C381.207 259.024 377.555 258.507 373.9 257.989L373.899 257.989C362.875 256.428 351.815 254.861 341.413 258.347C338.739 259.243 336.027 260.461 333.309 261.682C325.62 265.135 317.886 268.608 310.836 264.867C304.434 261.47 296.424 263.229 290.054 266.685C283.684 270.142 275.66 274.862 281.238 280.847C286.816 286.831 275.168 284.103 268.664 280.904C262.161 277.705 260.637 266.546 267.28 262.027C264.307 265.406 264.406 272.178 268.751 273.354C273.097 274.53 277.665 272.386 281.238 269.648C285.284 266.549 284.719 262.56 284.214 258.995C283.674 255.182 283.203 251.853 288.508 250.612C292.143 249.762 295.89 250.025 299.642 250.288C303.065 250.529 306.492 250.769 309.843 250.166C315.37 249.17 320.069 246.032 324.798 242.874C327.752 240.901 330.718 238.92 333.904 237.45C342.194 233.624 351.59 233.407 360.749 233.195C361.288 233.183 361.826 233.17 362.362 233.157C379.111 232.747 396.186 231.338 411.615 224.809C427.044 218.28 440.761 205.848 445.099 189.666C448.669 176.346 445.292 161.362 436.353 150.861C427.413 140.361 413.161 134.636 399.441 136.035C392.275 136.765 385.351 139.286 378.469 141.79C369.029 145.226 359.668 148.633 349.871 147.354C335.625 145.494 324.694 134.25 314.983 123.663C326.561 125.438 338.63 123.884 349.381 119.233C354.858 116.864 359.981 113.722 365.094 110.587L365.094 110.586C372.081 106.302 379.049 102.029 386.877 99.7517C406.305 94.1008 427.943 102.286 442.133 116.709C456.323 131.131 463.976 150.849 468.015 170.674C470.648 183.593 471.896 196.724 473.145 209.86V209.86C473.813 216.883 474.481 223.907 475.36 230.9C475.803 234.423 476.298 237.969 476.795 241.526L476.795 241.528C479.694 262.3 482.65 283.478 475.684 303.009C469.733 319.691 457.201 333.054 444.901 345.799C428.191 363.113 410.971 380.507 389.86 392.053C370.33 402.734 348.276 407.942 326.262 411.237C308.994 413.822 291.503 415.303 274.066 414.406C237.586 412.529 202.509 400.36 168.181 387.873C155.845 383.385 142.956 378.766 129.92 380.314C123.224 381.109 116.716 383.509 110.257 385.891L110.256 385.891C100.669 389.426 91.1875 392.923 81.3513 391.076C72.3104 389.378 64.9561 383.47 57.6078 377.567C50.15 371.576 42.6985 365.59 33.4964 364.015C41.723 362.655 49.8336 366.438 57.8061 370.157C67.0134 374.452 76.0365 378.661 84.8415 374.761C116.855 360.581 153.666 365.212 188.335 370.112L230.96 376.137C236.936 376.982 242.85 375.634 248.792 374.28C252.288 373.483 255.795 372.684 259.328 372.329C268.484 371.407 277.497 373.47 286.537 375.538C291.318 376.632 296.106 377.728 300.927 378.385C337.045 383.309 375.049 360.267 387.386 325.966C388.999 321.48 390.297 316.729 391.596 311.97C395.347 298.239 399.115 284.441 410.531 276.773C411.724 275.972 413.006 275.229 414.292 274.484L414.293 274.483C418.338 272.139 422.423 269.773 423.891 265.497C413.084 269.042 403.641 276.591 397.804 286.352C393.699 293.217 391.419 300.913 389.136 308.618L389.136 308.618C388.092 312.141 387.048 315.666 385.828 319.114C374.566 350.957 343.852 377.555 310.135 375.56C303.351 375.159 296.676 373.665 290.012 372.173C281.678 370.307 273.36 368.445 264.866 368.729C260.128 368.887 255.455 369.714 250.779 370.541C246.963 371.216 243.145 371.891 239.288 372.204C226.597 373.233 213.954 370.318 201.554 367.423C229.477 360.537 257.773 355.164 286.276 351.335C307.258 348.516 331.427 344.642 342.171 326.401C349.834 313.39 362.306 304.388 374.767 295.394C387.497 286.206 400.217 277.026 407.788 263.586C371.843 299.672 320.077 330.684 245.439 345.931C244.922 346.032 244.413 346.135 243.911 346.24C244.421 346.138 244.931 346.035 245.439 345.931C250.599 344.926 256.501 344.148 262.922 343.302C287.625 340.049 320.004 335.784 347.302 313.639C342.614 324.314 334.229 333.323 323.917 338.764C314.761 343.595 304.416 345.583 294.244 347.511L231.001 359.501C211.429 363.211 191.574 366.939 171.716 365.359C166.201 364.92 160.695 364.073 155.195 363.227C144.505 361.583 133.838 359.942 123.173 361.308C116.203 362.2 109.504 364.35 102.797 366.503L102.797 366.503C98.6437 367.836 94.4872 369.17 90.2614 370.207C79.2115 372.919 66.6799 373.324 57.3332 366.836C38.8628 354.015 9.47055 362.662 0.884766 383.442C10.695 371.566 28.4255 367.004 42.7494 372.67C48.5979 374.983 53.7724 378.753 58.9232 382.507C65.5115 387.307 72.0611 392.08 79.9329 393.739C90.633 395.994 101.454 392.058 112.164 388.163C124.175 383.794 136.044 379.477 147.443 384.003C186.074 399.341 226.194 411.965 267.592 415.68C308.99 419.395 351.958 413.766 388.687 394.31C407.531 384.327 424.382 370.937 440.038 356.458C454.802 342.804 468.951 327.582 476.122 308.793C484.023 288.092 482.7 265.175 481.264 243.064C478.651 202.824 475.421 160.628 453.633 126.695C446.316 115.299 436.82 104.985 424.831 98.6861C412.842 92.3869 398.145 90.4891 385.595 95.5786C378.657 98.3923 372.429 102.575 366.194 106.763C362.776 109.059 359.356 111.356 355.816 113.43C342.366 121.309 326.453 124.609 311.491 120.236C305.909 118.604 300.629 116.143 295.347 113.682C290.33 111.344 285.313 109.006 280.035 107.377C270.06 104.299 259.43 103.853 249.023 104.674C208.78 107.851 170.399 130.925 149.495 165.458C128.591 199.992 126.062 245.183 143.797 281.446C161.533 317.709 199.26 343.609 239.542 346.24C234.541 343.14 228.742 341.976 222.919 340.808C219.632 340.149 216.338 339.488 213.175 338.476C204.408 335.672 195.595 327.651 197.804 318.715C199.698 311.051 192.913 304.01 186.059 300.092C184.724 299.329 183.344 298.597 181.958 297.863C176.225 294.825 170.398 291.737 167.337 286.165C160.745 274.16 171.02 260.145 180.588 250.345C169.944 256.457 162.03 267.14 159.286 279.102C165.686 290.203 175.907 299.053 187.81 303.799C193.92 311.773 196.888 322.091 195.948 332.093C161.115 310.816 137.381 272.342 133.995 231.665C133.187 221.954 133.542 211.839 137.615 202.986C146.744 183.143 156.122 162.976 170.794 146.796C193.025 122.281 227.019 108.949 259.988 111.816C292.956 114.682 324.14 133.68 341.806 161.663C335.362 158.107 328.705 154.48 321.391 153.657C314.078 152.833 305.861 155.504 302.291 161.94C299.588 166.813 292.223 162.962 288.33 158.975C284.438 154.988 276.524 151.801 274.541 157.009L276.528 168.403C268.964 164.673 259.772 175.969 264.962 182.617C266.724 184.874 269.396 186.196 271.973 187.444C286.41 194.433 303.219 201.511 317.88 195.006C325.404 191.668 333.663 190.001 341.892 190.159C343.876 190.197 345.943 190.366 347.643 191.388C348.974 192.189 349.934 193.419 350.898 194.656C351.547 195.487 352.197 196.321 352.964 197.029C354.872 198.791 358.501 199.37 359.677 197.054C362.776 202.583 365.936 208.291 366.722 214.58C367.508 220.869 365.352 227.96 359.901 231.194C354.45 234.428 345.86 231.704 344.766 225.46C343.724 219.508 337.613 218.003 331.208 216.425C325.785 215.089 320.152 213.702 317.205 209.519C314.111 205.127 307.757 204.244 302.587 205.707C298.8 206.778 295.412 208.824 292.025 210.869C290.789 211.616 289.553 212.362 288.298 213.061C286.305 214.171 284.234 215.178 282.163 216.185L282.162 216.185C276.929 218.731 271.699 221.275 267.739 225.465C262.213 231.312 260.68 242.105 267.28 246.706C269.748 248.426 288.298 263.586 278.097 268.724C262.89 276.384 267.058 262.7 268.661 260.267C261.324 261.142 257.975 271.362 261.952 277.589C265.929 283.816 274.835 287.704 282.061 286.165C285.641 285.402 284.588 283.487 283.348 281.231C282.085 278.933 280.627 276.28 283.675 274.132C283.091 276.352 285.302 277.118 287.752 277.966C289.669 278.63 291.733 279.344 292.718 280.847C294.495 283.557 291.737 286.901 289.227 288.949L270.787 303.993C270.537 304.126 270.22 304.322 269.858 304.546C268.511 305.377 266.55 306.588 265.154 306.357C263.978 306.162 251.663 284.598 249.161 273.52C248.872 272.243 248.647 270.931 248.422 269.621L248.422 269.621L248.422 269.62L248.422 269.62L248.422 269.62L248.422 269.619L248.422 269.619L248.422 269.618L248.422 269.618C247.611 264.891 246.806 260.2 243.041 257.275C241.166 255.819 238.948 254.724 236.748 253.638C232.869 251.724 229.048 249.838 227.269 246.045C226.018 243.377 224.173 241.068 222.325 238.755C220.734 236.763 219.14 234.768 217.923 232.54C215.293 227.726 215.224 220.53 220.04 217.902C222.61 216.499 224.612 214.091 226.576 211.729ZM214.035 160.951C217.827 161.092 219.992 165.216 221.435 168.726C222.878 172.235 225.261 176.311 229.053 176.175C232.775 176.042 236.576 175.918 240.141 176.992C243.707 178.066 247.058 180.575 248.132 184.141C248.338 184.825 248.474 185.561 248.61 186.296C248.962 188.194 249.313 190.089 250.861 191.091C251.192 191.304 251.576 191.482 251.96 191.659C252.907 192.096 253.848 192.53 253.942 193.498C253.989 193.976 253.779 194.441 253.543 194.86C251.119 199.164 245.856 200.902 240.993 201.772C240.293 201.897 239.585 202.014 238.875 202.131L238.875 202.131L238.874 202.131L238.874 202.131L238.874 202.132C234.655 202.829 230.352 203.54 226.976 206.085C225.287 207.358 223.951 209.009 222.614 210.661C221.471 212.074 220.327 213.488 218.959 214.67C218.431 215.126 217.871 215.547 217.311 215.968C216.263 216.756 215.216 217.542 214.39 218.553C213.123 220.105 212.509 222.469 213.684 224.091C208.551 217.123 202.27 211.003 195.171 206.053C193.245 204.71 191.053 203.119 190.885 200.776C190.469 195.008 185.847 190.7 181.548 186.693C181.184 186.354 180.822 186.017 180.466 185.681C178.417 183.753 176.295 181.018 177.338 178.407C177.931 176.924 179.348 176.051 180.764 175.179C182.201 174.293 183.636 173.409 184.202 171.891C184.649 170.692 184.427 169.419 184.203 168.132C184.029 167.139 183.855 166.139 183.986 165.16C184.21 163.489 184.892 163.054 186.587 161.972C187.742 161.235 189.366 160.198 191.635 158.267C195.078 155.338 199.995 157.55 204.253 159.465C206.926 160.667 209.339 161.752 210.964 161.376C211.968 161.143 213 160.913 214.035 160.951ZM240.695 258.347C243.114 261.103 245.641 264.087 246.122 267.723C246.368 269.575 246.04 271.5 245.197 273.167L234.257 256.124C234.139 255.939 234.017 255.714 234.105 255.514C234.248 255.188 234.732 255.288 235.053 255.442L239.549 257.595C239.964 257.794 240.391 258.002 240.695 258.347ZM355.833 174.084C355.735 174.999 356.062 175.95 356.7 176.613C357.534 177.031 358.415 176.628 359.311 176.219C359.728 176.028 360.148 175.836 360.568 175.725C361.336 175.522 362.148 175.599 362.939 175.677L372.657 176.642C373.255 175.716 372.03 174.689 370.991 174.321C366.142 172.606 360.733 172.521 355.833 174.084ZM408.789 191.595C404.835 197.662 398.648 202.238 391.689 204.242L391.626 205.802C399.379 204.071 406.419 199.333 410.941 192.803C411.462 192.05 411.889 190.877 411.14 190.35C410.325 189.775 409.334 190.76 408.789 191.595ZM393.158 176.142C392.21 175.878 390.928 175.633 390.468 176.504C392.119 178.004 393.973 179.589 396.202 179.656C397.797 179.704 399.294 178.954 400.712 178.223C404.047 176.503 407.412 174.764 410.3 172.368C410.191 171.356 408.871 170.886 407.906 171.21C407.105 171.478 406.489 172.088 405.881 172.689L405.88 172.69C405.818 172.752 405.755 172.814 405.692 172.875C405.631 172.935 405.57 172.994 405.508 173.053C402.296 176.115 397.434 177.331 393.158 176.142ZM384.306 196.749C384.563 197.174 384.882 197.624 385.366 197.735C385.711 197.815 386.069 197.702 386.405 197.591L391.661 195.855C391.661 195.235 390.998 194.805 390.381 194.744C390.036 194.709 389.69 194.75 389.344 194.791C389.072 194.823 388.8 194.856 388.527 194.851C386.423 194.818 384.961 192.685 384.434 190.647C384.251 189.938 384.132 189.207 384.014 188.478C383.792 187.114 383.571 185.754 382.93 184.542C381.718 184.484 381.277 186.124 381.355 187.335C381.566 190.648 382.588 193.907 384.306 196.749ZM369.376 185.139C370.61 183.806 372.455 182.033 373.866 183.177C371.465 187.885 366.231 190.999 360.948 190.864C363.871 196.389 365.757 202.46 366.478 208.669C366.605 209.76 367.303 210.69 368.009 211.531C371.569 215.772 376.144 219.355 381.496 220.774C391.4 223.4 402.046 217.991 408.513 210.044C414.979 202.096 418.117 192.023 420.991 182.188C421.821 179.349 423.054 176.078 425.903 175.282C428.982 174.422 431.547 171.911 432.472 168.85C433.397 165.79 432.652 162.278 430.564 159.857C428.203 157.119 423.113 156.332 421.313 159.467C420.614 160.686 418.905 160.969 417.57 160.533C416.489 160.181 415.574 159.48 414.666 158.783C414.539 158.686 414.412 158.589 414.284 158.492C414.197 158.426 414.11 158.361 414.022 158.296C407.02 153.131 397.678 152.837 388.977 152.747C386.223 152.718 383.436 152.694 380.76 153.344C377.643 154.101 374.862 155.721 372.074 157.347C369.912 158.606 367.746 159.868 365.416 160.733C358.592 163.266 350.498 162.025 344.747 157.563C350.993 167.45 356.207 177.987 360.279 188.95C363.668 189.054 367.074 187.627 369.376 185.139ZM277.829 160.907L277.829 160.908C278.668 162.641 279.502 164.365 279.654 166.265C279.903 169.381 276.636 172.946 273.996 171.273C271.255 169.537 267.209 171.167 265.931 174.149C264.653 177.131 265.863 180.799 268.299 182.942C270.138 184.559 272.51 185.407 274.82 186.219C277.612 187.201 280.757 188.525 284.024 189.899L284.025 189.899C292.27 193.369 301.285 197.162 307.328 196.598C310.355 196.316 315.994 193.011 317.914 191.82C321.575 189.549 325.815 187.186 329.958 188.367C335.176 189.855 340.925 189.398 345.843 187.105C348.241 185.986 350.465 188.921 351.447 191.378C352.43 193.835 354.386 196.862 356.894 196.019C358.278 195.554 359.022 193.963 358.978 192.504C358.934 191.045 358.279 189.683 357.636 188.372L345.966 164.555C342.851 165.427 340.088 163.621 337.244 161.762C335.309 160.498 333.337 159.209 331.192 158.722C330.115 158.477 329.008 158.443 327.9 158.408C326.748 158.372 325.596 158.336 324.48 158.064C323.285 157.772 322.172 157.219 321.061 156.667C319.707 155.995 318.357 155.325 316.87 155.133C313.678 154.721 310.633 156.614 308.308 158.839C307.544 159.57 306.82 160.348 306.096 161.125C304.617 162.713 303.14 164.299 301.331 165.481C298.637 167.24 294.815 167.872 292.319 165.841C291.354 165.056 290.709 163.982 290.063 162.906L290.062 162.905C289.743 162.373 289.423 161.84 289.063 161.34C286.292 157.492 280.828 155.846 276.392 157.522C276.755 158.686 277.293 159.798 277.829 160.907ZM266.049 238.58C267.134 241.813 269.36 244.645 271.88 246.942C272.431 247.444 273.058 247.929 273.69 248.417L273.69 248.417C275.764 250.02 277.888 251.662 277.528 254.082C282.202 249.141 289.193 246.492 295.967 247.093C297.076 247.191 298.176 247.371 299.276 247.551C300.454 247.744 301.632 247.937 302.821 248.029C311.268 248.686 319.193 244.302 326.528 240.061L342.331 230.925C343.552 228.388 342.607 225.22 340.721 223.13C338.835 221.04 336.183 219.823 333.556 218.811C330.708 217.714 327.743 216.782 324.692 216.72C324.403 216.714 324.106 216.711 323.803 216.708C320.985 216.681 317.715 216.649 316.744 214.141C315.317 210.456 311.832 207.648 307.928 207.036C304.024 206.424 299.848 208.031 297.361 211.103C295.064 213.94 291.466 215.219 287.986 216.456L287.985 216.457C287.567 216.605 287.15 216.754 286.737 216.904C282.08 218.599 277.604 220.789 273.407 223.424C269.888 225.633 266.248 228.716 266.049 232.866C266.028 233.323 265.979 233.815 265.929 234.321C265.787 235.769 265.633 237.339 266.049 238.58ZM425.137 213.733C431.71 208.608 437.465 202.224 440.854 194.61C444.243 186.995 445.095 178.068 442.15 170.271C440.399 165.635 437.406 161.567 434.107 157.868C428.38 151.448 420.886 145.668 412.283 145.548C409.414 145.508 406.58 146.106 403.773 146.701L387.499 150.152C396.719 149.98 405.969 151.482 414.661 154.565L414.732 154.59C416.688 155.284 418.827 156.042 420.766 155.314C425.528 153.527 431.416 155.511 434.126 159.816C436.836 164.121 436.077 170.288 432.406 173.809C431.663 174.52 430.828 175.125 429.993 175.729C429.069 176.397 428.146 177.065 427.35 177.877C424.973 180.303 424.001 183.693 423.057 186.988C422.948 187.368 422.84 187.746 422.73 188.121C417.102 207.305 402.423 224.861 382.869 229.022C398.095 228.535 413.123 223.1 425.137 213.733ZM407.39 144.58C412.372 144.03 417.546 143.529 422.288 145.155C426.625 146.642 430.174 149.766 433.598 152.815L438.554 157.229C431.164 145.456 417.511 137.884 403.612 137.849C396.928 137.832 390.329 139.437 384.032 141.676C382.028 142.388 380.049 143.165 378.07 143.942C377.395 144.207 376.72 144.472 376.044 144.734C368.689 147.589 361.068 150.17 353.181 150.362C345.294 150.555 337.008 148.044 331.796 142.122C331.566 141.861 331.339 141.591 331.111 141.321L331.111 141.32C330 140.001 328.868 138.655 327.258 138.121C331.873 144.069 336.585 150.111 342.747 154.435C348.91 158.76 356.857 161.186 364.081 159.067C367.351 158.107 370.259 156.302 373.171 154.495C374.496 153.672 375.823 152.848 377.185 152.104C386.351 147.094 397.007 145.727 407.39 144.58ZM295.804 282.628C296.097 283.868 297.477 285.109 298.523 284.382C303.986 280.58 309.47 276.767 315.389 273.722C316.026 273.395 316.669 273.075 317.314 272.754C320.533 271.154 323.779 269.54 326.252 266.963C322.652 268.716 318.4 268.449 314.479 267.639C313.227 267.38 311.983 267.07 310.74 266.76L310.739 266.76C308.087 266.099 305.438 265.438 302.717 265.278C299.293 265.076 295.823 265.69 292.676 267.054C290.783 267.875 288.924 269.049 287.953 270.869C286.983 272.69 287.213 275.269 288.908 276.445C289.697 276.992 290.692 277.193 291.671 277.39C292.963 277.65 294.226 277.904 294.952 278.94C295.436 279.63 295.525 280.478 295.614 281.332C295.659 281.769 295.705 282.208 295.804 282.628ZM378.099 224.042C376.563 223.118 375.32 221.789 374.098 220.478L368.1 214.042L368.8 224.687C368.867 225.717 368.931 226.777 368.603 227.755C368.276 228.733 367.455 229.62 366.427 229.703C365.886 229.747 365.873 230.65 366.339 230.928C366.805 231.207 367.399 231.053 367.917 230.891L382.063 226.482C382.94 226.209 383.845 225.92 384.531 225.308C382.327 225.648 380.01 225.191 378.099 224.042ZM408.043 162.578C403.365 162.267 398.706 163.225 394.116 164.178C392.915 164.427 391.705 164.679 390.578 165.163C387.95 166.293 386.019 168.567 384.187 170.764C383.916 171.09 383.627 171.467 383.671 171.89C383.746 172.608 384.759 172.863 385.392 172.514C385.917 172.224 386.247 171.701 386.573 171.187C386.639 171.082 386.705 170.978 386.773 170.875C389.18 167.238 393.921 166.122 398.204 165.299C401.833 164.601 405.569 163.903 409.196 164.613C409.829 164.737 410.186 163.755 409.795 163.242C409.405 162.728 408.686 162.621 408.043 162.578Z" fill="#00160A"/>
</svg>
